<?xml version="1.0" standalone="no"?>
<!DOCTYPE svg PUBLIC "-//W3C//DTD SVG 20010904//EN"
 "http://www.w3.org/TR/2001/REC-SVG-20010904/DTD/svg10.dtd">
<svg version="1.0" xmlns="http://www.w3.org/2000/svg"
 width="1086.000000pt" height="1280.000000pt" viewBox="0 0 1086.000000 1280.000000"
 preserveAspectRatio="xMidYMid meet">

<g transform="translate(0.000000,1280.000000) scale(0.100000,-0.100000)"
fill="#000000" stroke="none">
<path d="M5471 11322 c-1 -7 -5 -11 -10 -7 -15 9 -92 -19 -87 -31 3 -7 -12
-14 -37 -18 -23 -4 -52 -14 -65 -22 -20 -13 -26 -13 -52 0 -17 8 -32 10 -36 5
-3 -5 2 -9 10 -9 9 0 16 -8 16 -17 0 -14 -2 -15 -9 -5 -4 8 -12 14 -16 14 -4
0 -12 -6 -16 -14 -7 -11 -11 -10 -19 2 -8 13 -10 12 -10 -4 0 -11 -5 -16 -14
-13 -8 3 -17 -1 -20 -10 -4 -9 -13 -13 -22 -9 -8 3 -25 -3 -36 -14 -12 -11
-27 -20 -32 -20 -6 0 -4 5 4 10 8 5 12 10 7 10 -4 0 -16 -6 -27 -12 -16 -11
-22 -9 -34 7 -15 20 -15 20 -11 -2 2 -15 -1 -23 -10 -23 -7 0 -16 -6 -18 -12
-3 -8 -6 -6 -6 5 -1 9 4 17 10 17 5 0 7 5 4 10 -6 10 -35 -11 -35 -26 0 -4 -8
-16 -17 -26 -15 -17 -15 -20 -3 -29 11 -6 6 -8 -15 -5 -17 1 -36 -3 -43 -11
-8 -7 -9 -13 -2 -13 5 0 10 -7 10 -15 0 -8 -6 -15 -14 -15 -8 0 -16 -4 -18 -8
-1 -4 -23 -18 -48 -30 -25 -12 -39 -22 -31 -22 10 0 11 -3 2 -13 -6 -8 -8 -17
-4 -21 4 -4 0 -4 -10 0 -19 7 -25 -20 -7 -29 6 -3 5 -4 -2 -3 -25 5 -109 -79
-101 -101 4 -9 2 -14 -3 -11 -10 6 -36 -17 -28 -25 2 -2 -2 -10 -10 -16 -8 -7
-12 -19 -10 -26 3 -7 -4 -19 -16 -25 -17 -9 -19 -14 -9 -26 9 -11 9 -14 0 -14
-7 0 -9 -4 -6 -10 3 -5 2 -10 -2 -10 -9 0 -11 -12 -15 -75 -1 -21 -7 -35 -15
-35 -9 0 -11 -8 -7 -25 4 -17 2 -25 -7 -25 -9 0 -10 -3 -4 -8 16 -10 13 -63
-2 -57 -7 2 -13 0 -13 -5 0 -6 4 -10 9 -10 11 0 1 -193 -10 -201 -6 -3 -7 -13
-3 -22 3 -9 2 -22 -2 -29 -5 -7 -10 -44 -11 -82 -1 -37 -5 -76 -9 -85 -4 -9
-6 -26 -5 -38 1 -12 -4 -41 -12 -65 -21 -63 -41 -303 -34 -407 3 -50 15 -129
28 -176 12 -47 19 -88 16 -91 -2 -3 -23 5 -46 17 -38 20 -43 20 -65 5 -36 -23
-40 -49 -14 -93 13 -21 28 -47 33 -57 6 -11 7 -69 2 -164 -9 -148 -2 -219 28
-282 31 -65 57 -163 52 -196 -5 -27 0 -40 20 -64 13 -16 30 -30 37 -30 8 0 20
-50 35 -147 12 -82 33 -182 47 -223 23 -71 33 -93 83 -184 36 -63 17 -51 -22
16 -22 36 -38 56 -41 47 -2 -8 -9 -151 -15 -319 -17 -456 -17 -456 -38 -492
-18 -33 -175 -147 -202 -148 -9 0 -11 8 -6 28 5 22 4 25 -6 15 -7 -7 -20 -13
-29 -13 -19 0 -70 -73 -70 -100 0 -10 12 -52 26 -92 39 -113 46 -128 55 -128
5 0 3 10 -5 23 -7 12 -20 46 -27 75 -11 45 -11 55 1 62 8 5 22 4 32 -1 10 -6
23 -7 28 -4 6 3 10 1 10 -4 0 -14 37 -51 51 -51 5 0 8 -4 5 -9 -4 -5 -3 -17 1
-27 6 -16 7 -15 20 2 13 17 14 16 7 -11 -7 -28 -6 -29 11 -15 17 14 17 13 10
-9 -6 -19 -4 -23 8 -18 21 8 29 -3 15 -20 -6 -7 -8 -16 -5 -20 4 -3 2 -12 -4
-20 -9 -9 -8 -13 0 -13 6 0 14 7 17 15 4 9 17 15 33 14 17 -1 20 -3 9 -6 -10
-2 -19 -11 -19 -19 -1 -8 -2 -18 -3 -24 -1 -5 4 -10 9 -9 6 0 9 7 7 15 -2 8 2
14 8 14 5 0 10 -7 10 -16 0 -8 5 -12 10 -9 6 3 10 19 10 35 0 16 5 32 10 35 8
5 7 11 -1 21 -9 11 -8 15 4 20 11 4 14 15 9 46 -4 31 -2 39 8 33 9 -5 10 -2 5
14 -5 16 -3 20 9 15 9 -3 16 -13 16 -21 0 -8 4 -12 9 -9 13 8 7 72 -9 91 -9
11 -9 15 -1 15 8 0 10 8 6 20 -5 16 -2 20 14 20 25 0 27 -13 5 -35 -20 -20
-11 -33 11 -15 8 7 15 23 15 36 0 15 6 24 15 24 8 0 15 9 15 21 0 17 5 20 33
17 28 -3 32 -6 29 -30 -1 -16 2 -28 8 -28 5 0 10 -6 10 -14 0 -8 4 -17 9 -20
4 -3 7 14 6 39 -2 49 9 50 29 2 l13 -32 -1 27 c0 16 -4 28 -8 28 -5 0 -8 7 -8
15 0 8 -5 15 -11 15 -7 0 -9 11 -5 31 5 27 4 30 -15 24 -16 -5 -20 -3 -17 6 3
8 17 14 31 14 40 -1 33 13 -13 25 -37 10 -56 23 -27 19 22 -3 37 1 37 9 0 5
-17 14 -37 20 l-38 11 43 -4 c37 -3 41 -1 26 9 -9 7 -14 18 -10 24 4 7 1 12
-7 12 -8 0 -20 6 -26 14 -10 11 -8 17 6 25 15 9 16 12 3 20 -8 6 -11 13 -7 17
4 4 13 2 19 -4 17 -17 31 -15 24 4 -5 13 -2 15 14 11 25 -6 26 11 3 29 -17 13
-17 13 0 14 24 0 22 20 -3 20 -11 0 -20 5 -20 10 0 6 -12 10 -27 11 -28 1 -28
1 -4 8 31 8 40 31 12 31 -12 0 -21 5 -21 10 0 6 11 10 25 10 22 0 49 -29 50
-54 0 -13 25 -20 25 -7 0 5 -4 13 -10 16 -13 8 -13 95 0 95 5 0 7 -7 4 -15 -4
-8 -2 -15 4 -15 6 0 12 6 15 13 2 6 7 9 11 5 4 -3 3 -16 -4 -27 -9 -17 -8 -21
5 -21 9 0 18 -7 21 -15 4 -8 16 -15 28 -15 24 -1 56 -22 56 -39 0 -14 17 -15
25 -1 3 6 11 10 18 10 8 0 8 -3 -1 -12 -7 -7 -12 -19 -12 -27 0 -11 4 -10 20
4 16 14 23 15 34 6 8 -7 12 -20 9 -28 -5 -12 -3 -14 7 -8 9 5 11 4 6 -3 -4 -7
-15 -12 -24 -13 -14 0 -13 -2 3 -8 24 -10 47 -3 38 12 -3 6 -1 7 6 3 9 -6 9
-11 1 -21 -12 -15 3 -31 19 -20 5 3 13 1 16 -5 4 -6 16 -8 28 -5 16 5 18 4 8
-3 -11 -8 -9 -15 15 -37 18 -16 30 -22 32 -15 3 7 -2 16 -9 21 -19 12 -3 11
19 0 21 -12 51 -21 56 -18 1 1 10 -4 19 -12 9 -7 24 -11 33 -7 8 3 29 -1 47
-10 21 -12 32 -13 35 -5 5 15 23 14 19 -1 -3 -15 55 -36 103 -39 l35 -1 -30
-8 c-23 -6 -25 -8 -8 -9 12 0 33 3 47 9 14 5 26 6 26 1 0 -4 19 -16 43 -25 27
-12 37 -20 28 -23 -8 -3 -17 -1 -19 6 -5 16 -22 14 -22 -4 0 -9 10 -15 26 -15
14 0 23 -4 20 -9 -4 -5 13 -7 36 -5 34 3 38 2 18 -5 -14 -5 -38 -10 -55 -11
l-30 -2 30 -9 c17 -5 41 -7 55 -4 16 4 20 2 12 -3 -7 -5 -12 -15 -10 -23 2 -7
-6 -15 -19 -17 -12 -2 -24 -10 -27 -18 -3 -9 -1 -12 4 -9 6 3 10 2 10 -4 0 -6
11 -13 25 -17 14 -3 25 -11 25 -16 0 -6 -11 -8 -25 -6 -14 3 -25 1 -25 -3 0
-5 -12 -9 -26 -9 -14 0 -23 4 -19 10 3 6 -1 10 -9 10 -22 0 -20 -17 4 -30 11
-6 20 -19 20 -29 0 -19 4 -20 60 -24 19 -1 38 -6 42 -12 4 -5 6 0 5 13 -1 19
-7 22 -45 22 -39 0 -42 2 -28 15 18 19 21 19 67 -2 51 -24 55 -72 7 -64 -5 0
-8 -3 -8 -8 0 -5 -8 -11 -17 -14 -10 -2 -2 -4 17 -4 19 0 45 7 58 15 19 13 22
13 22 -1 0 -9 11 -17 28 -20 l27 -4 -27 -2 c-25 -1 -42 -21 -19 -21 5 0 12
-11 15 -25 6 -25 29 -34 40 -16 4 5 19 3 37 -6 16 -8 39 -13 50 -10 30 8 23
-7 -11 -21 -16 -8 -30 -20 -30 -27 0 -8 -8 -12 -19 -10 -11 2 -22 -3 -26 -12
-9 -25 8 -34 36 -19 14 7 34 10 44 6 16 -5 11 -10 -25 -22 l-45 -15 32 -7 c36
-8 67 -36 39 -36 -19 0 -22 -19 -3 -21 6 -1 25 0 41 1 22 1 28 -2 23 -14 -3
-8 0 -19 7 -23 7 -5 16 -15 19 -23 3 -8 6 2 6 22 1 38 1 38 41 36 23 -1 44 -6
47 -11 3 -6 1 -7 -4 -4 -6 4 -14 0 -17 -9 -10 -25 -8 -27 23 -22 17 2 28 1 25
-4 -3 -4 -12 -8 -20 -8 -8 0 -14 -7 -14 -15 0 -12 4 -13 19 -5 11 5 31 10 44
10 14 0 30 7 37 15 13 15 65 22 56 7 -3 -5 10 -4 29 2 35 11 45 29 24 41 -7 5
-4 14 7 26 15 17 19 17 33 5 9 -8 25 -16 36 -18 15 -3 20 -11 18 -31 -2 -30 0
-31 28 -16 18 9 19 7 13 -15 -8 -32 -1 -33 29 -3 l22 22 3 -37 c2 -20 10 -42
18 -48 8 -7 14 -19 14 -28 0 -10 -8 -6 -24 13 -13 15 -26 23 -30 17 -3 -5 1
-12 9 -16 8 -3 15 -12 15 -20 0 -8 6 -16 13 -19 9 -3 9 -11 -1 -38 -8 -22 -9
-35 -2 -37 17 -6 11 -31 -10 -42 -15 -8 -19 -17 -15 -31 4 -10 2 -19 -3 -19
-6 0 -12 -7 -16 -15 -10 -27 3 -16 59 52 53 65 68 92 43 77 -8 -4 -10 -3 -5 2
5 5 13 9 18 9 5 0 21 20 35 45 23 42 6 29 -23 -16 -11 -17 -12 -17 -12 8 -1
14 4 28 11 30 8 3 8 9 0 24 -11 18 -11 18 -12 -3 0 -16 -6 -23 -18 -23 -17 0
-18 5 -12 47 5 27 4 49 0 51 -9 3 -1 42 12 58 5 7 7 18 6 25 -2 9 5 13 18 11
21 -3 23 0 43 63 4 11 13 20 20 20 8 0 19 9 25 20 6 10 21 28 34 38 12 10 22
27 22 38 0 12 4 17 11 13 10 -6 9 -32 -6 -104 -3 -14 2 -7 10 15 9 22 17 63
17 90 3 85 -15 125 -89 198 -70 69 -105 88 -82 45 11 -22 11 -22 -7 -7 -10 9
-25 14 -31 12 -8 -3 -13 4 -13 17 0 12 3 19 8 17 4 -3 6 45 4 106 -1 62 3 241
10 400 10 219 10 286 1 283 -6 -3 9 24 33 59 26 37 42 70 38 76 -4 8 -3 9 4 5
13 -8 37 39 33 63 -1 7 2 10 7 7 12 -7 34 42 26 56 -4 7 -2 8 4 4 11 -7 13 -2
16 45 1 9 7 23 14 32 8 10 11 25 7 38 -5 16 -4 19 5 14 10 -6 12 0 7 26 -5 24
-4 30 3 19 9 -13 10 -13 10 0 1 8 5 38 9 65 6 35 5 52 -3 58 -8 5 -7 9 2 16
18 11 31 118 25 216 -6 95 -6 72 2 220 3 66 6 127 6 135 -1 8 -1 36 -2 62 0
26 -4 50 -8 53 -5 2 -6 16 -4 30 3 13 2 33 -2 42 -9 20 -11 30 -13 56 -1 10
-7 15 -12 12 -12 -7 -9 23 4 44 6 10 5 12 -2 7 -8 -5 -12 1 -12 14 0 12 -7 28
-16 37 -8 9 -13 22 -9 31 3 8 -2 23 -11 33 -10 11 -14 19 -10 19 4 0 0 7 -9
16 -11 11 -14 25 -10 42 5 22 4 24 -20 18 -25 -6 -36 8 -12 17 10 4 10 6 0 6
-7 1 -13 6 -13 11 0 6 6 9 13 8 6 -2 13 6 13 17 1 11 2 28 3 38 2 26 20 21 27
-8 3 -14 12 -25 20 -25 17 0 17 1 4 35 -10 27 -2 50 33 89 16 18 16 21 3 24
-9 2 -16 12 -16 22 0 19 25 50 39 50 11 0 21 -95 15 -140 -14 -124 -18 -194
-14 -260 l5 -75 17 55 c55 181 69 474 30 630 -14 54 -22 118 -22 175 -1 143 3
224 11 219 4 -2 4 10 -1 28 -7 21 -6 36 2 45 7 9 8 21 1 36 -5 12 -9 45 -8 72
1 28 -2 55 -7 61 -5 7 -8 16 -6 20 1 5 -6 24 -16 43 -14 26 -17 47 -13 82 5
37 2 49 -9 53 -8 3 -12 11 -9 16 4 6 0 21 -9 34 -12 19 -13 32 -6 57 12 42 13
39 -6 39 -10 0 -14 6 -11 14 3 8 1 16 -5 18 -7 3 -5 10 5 20 12 11 13 18 4 27
-15 15 6 14 22 -1 11 -11 13 -10 9 2 -5 18 -48 27 -48 10 0 -6 -5 -8 -11 -5
-6 4 -8 10 -5 13 3 3 -8 13 -24 23 -17 11 -30 26 -30 34 0 9 -12 18 -29 21
-16 3 -38 19 -50 35 -12 16 -30 29 -41 29 -11 0 -20 7 -20 15 0 9 -6 12 -15 9
-8 -4 -15 -1 -15 5 0 6 -9 11 -20 11 -11 0 -20 4 -20 9 0 9 -28 20 -70 27 -43
8 -49 12 -43 33 3 12 1 21 -6 21 -5 0 -8 -6 -5 -14 3 -9 -4 -15 -20 -18 -17
-3 -23 -1 -19 6 3 6 0 5 -8 -1 -17 -17 -29 -16 -29 2 0 9 -6 12 -15 9 -11 -4
-13 -2 -9 9 6 17 -12 32 -21 17 -9 -15 -45 -12 -51 4 -3 8 -14 14 -24 13 -13
-1 -16 -5 -10 -12 7 -8 4 -12 -8 -12 -17 0 -44 21 -37 29 3 3 -2 5 -10 5 -8 0
-15 -6 -15 -14 0 -19 -13 -16 -33 7 -9 11 -24 20 -32 20 -8 0 -15 8 -15 18 0
13 -2 14 -9 4 -6 -11 -10 -10 -15 4 -6 16 -8 16 -26 -1 -14 -12 -20 -14 -20
-5 0 10 -3 10 -15 0 -12 -10 -18 -10 -30 0 -8 7 -12 17 -8 23 4 6 0 8 -10 4
-9 -3 -18 -1 -21 6 -3 8 -5 8 -5 -2 -1 -11 -4 -11 -16 -1 -10 9 -15 9 -15 1 0
-15 -26 -14 -42 2 -8 8 -29 12 -51 11 -25 -2 -40 1 -43 10 -3 8 -18 13 -37 11
-18 -2 -49 -3 -70 -4 -23 -1 -36 -5 -32 -11 8 -14 2 -13 -31 5 -20 10 -30 11
-35 4 -4 -8 -8 -7 -12 2 -4 11 -6 11 -6 1z m196 -994 c-3 -8 -6 -5 -6 6 -1 11
2 17 5 13 3 -3 4 -12 1 -19z m-180 -4 c23 1 45 5 49 9 11 11 36 8 29 -3 -3 -5
0 -10 7 -10 10 0 10 -2 -1 -9 -18 -12 -4 -18 44 -19 24 -1 45 -8 52 -18 8 -11
18 -14 35 -8 13 4 30 7 38 6 42 -7 60 -13 60 -23 0 -6 -9 -9 -20 -6 -11 3 -20
1 -20 -4 0 -4 -6 -6 -14 -3 -8 3 -23 1 -33 -6 -16 -9 -15 -10 6 -4 15 4 27 1
32 -7 6 -10 9 -11 9 -1 0 6 5 12 11 12 6 0 8 -8 4 -19 -8 -26 20 -48 40 -31
17 14 20 40 5 40 -5 0 -10 5 -10 11 0 6 7 8 16 5 8 -3 12 -2 9 4 -3 5 7 15 22
21 15 6 36 15 46 20 11 6 17 5 17 -1 0 -5 -4 -10 -10 -10 -21 0 -9 -17 23 -31
31 -14 52 -59 27 -59 -6 0 -9 -4 -5 -10 3 -5 13 -7 23 -4 13 5 14 4 3 -4 -9
-7 -12 -20 -8 -40 3 -16 2 -33 -3 -38 -6 -6 -2 -14 10 -22 16 -10 23 -8 39 9
12 13 21 17 26 10 3 -6 0 -14 -8 -17 -8 -3 -18 -15 -21 -27 -6 -20 -7 -21 -17
-4 -5 9 -19 17 -29 17 -11 0 -20 7 -20 16 0 8 -5 12 -10 9 -6 -4 -8 -15 -5
-25 7 -22 -14 -38 -26 -19 -4 7 -11 10 -15 6 -4 -4 1 -14 12 -23 18 -15 18
-15 -8 -11 -34 5 -28 -9 6 -15 18 -4 27 1 35 19 12 26 37 32 27 7 -5 -13 -2
-15 13 -11 14 3 18 1 14 -9 -3 -9 -13 -12 -24 -9 -20 7 -26 -9 -8 -21 6 -3 9
-15 6 -25 -4 -14 1 -21 19 -25 20 -5 23 -11 18 -31 -5 -19 -3 -24 7 -21 8 3
14 11 14 18 0 7 6 15 13 18 10 3 13 -6 10 -34 -2 -31 1 -39 15 -42 9 -2 17 1
17 7 0 19 17 12 23 -10 4 -14 13 -20 29 -18 27 2 84 -19 75 -28 -4 -3 3 -14
15 -24 25 -23 32 -24 25 -5 -4 10 -1 13 9 9 7 -3 14 -9 14 -13 0 -5 2 -14 5
-22 3 -9 -3 -13 -19 -13 -13 0 -22 4 -19 9 7 10 -38 -3 -51 -15 -6 -5 1 -12
15 -18 18 -7 5 -9 -55 -9 -67 0 -82 -3 -100 -22 -18 -18 -19 -20 -3 -14 20 7
19 7 -10 -45 -2 -2 -9 2 -17 8 -12 10 -14 9 -9 -8 6 -24 -24 -43 -55 -34 -15
3 -24 0 -28 -11 -3 -9 -13 -16 -21 -16 -8 0 -11 -5 -7 -11 4 -8 0 -9 -15 -4
-16 5 -20 3 -15 -9 4 -10 1 -16 -9 -16 -16 0 -30 -26 -22 -40 3 -4 -4 -10 -15
-13 -13 -3 -18 -10 -14 -21 4 -12 0 -16 -16 -16 -18 0 -21 -5 -19 -32 2 -18
-3 -44 -10 -56 -20 -37 -23 -72 -8 -87 8 -8 13 -26 11 -42 -8 -63 -7 -97 4
-101 18 -6 15 -29 -4 -36 -15 -6 -14 -9 6 -31 18 -19 20 -27 11 -39 -9 -11 -6
-20 13 -43 19 -23 22 -33 14 -41 -9 -9 -9 -12 0 -12 7 0 12 -11 12 -25 0 -14
5 -25 10 -25 6 0 10 -8 10 -17 1 -25 31 -62 37 -45 3 6 9 10 13 7 5 -3 7 -12
3 -20 -3 -11 2 -15 17 -15 16 0 20 -4 16 -16 -4 -11 -1 -14 12 -13 45 7 108
-44 124 -99 5 -19 -3 -56 -18 -80 -4 -7 -44 23 -44 33 0 9 -55 35 -105 49 -15
4 -32 -6 -63 -38 -66 -68 -149 -83 -210 -39 -45 33 -95 53 -134 53 -35 -1 -79
-32 -91 -64 -5 -13 -14 -17 -32 -14 -30 6 -31 3 -5 -29 11 -14 20 -32 20 -39
0 -8 9 -14 20 -14 11 0 20 5 20 11 0 5 5 7 10 4 6 -3 24 3 40 15 26 19 29 24
18 38 -11 13 -11 14 1 8 8 -5 16 -4 21 3 4 7 28 13 53 14 35 2 53 -4 79 -23
30 -23 41 -25 131 -24 89 0 113 -5 87 -21 -17 -11 -11 -45 8 -45 16 -1 16 -1
0 -11 -10 -5 -18 -17 -18 -24 0 -8 -4 -15 -9 -15 -5 0 -7 -20 -5 -44 5 -41 3
-44 -28 -59 -50 -24 -85 -30 -93 -17 -4 6 -18 15 -31 20 -13 5 -24 16 -24 25
0 8 -7 15 -15 15 -8 0 -15 7 -15 16 0 13 -3 14 -14 5 -21 -18 -54 7 -59 44 -3
23 -4 21 -5 -12 -1 -24 3 -43 8 -43 6 0 10 -5 10 -11 0 -5 -13 -2 -30 8 -16 9
-30 21 -30 26 0 16 -36 1 -54 -23 -12 -16 -16 -19 -12 -7 3 10 -12 0 -34 -23
-22 -23 -40 -46 -40 -51 0 -5 -4 -9 -10 -9 -22 0 -9 40 18 54 15 8 23 15 19
16 -17 0 -63 -29 -77 -50 -24 -36 -41 -51 -51 -45 -14 9 -33 -41 -24 -62 5
-10 7 -23 6 -30 -3 -18 54 8 88 39 66 63 205 114 277 103 23 -3 58 -14 79 -25
34 -17 40 -18 66 -5 15 8 42 15 59 15 36 0 163 -30 170 -40 3 -4 15 -10 27
-14 13 -4 20 -12 17 -21 -7 -17 -61 -9 -86 13 -16 14 -18 13 -18 -3 0 -15 -3
-16 -12 -7 -21 21 -32 13 -12 -9 15 -16 16 -22 5 -29 -17 -10 -43 -2 -54 17
-11 18 -27 17 -27 -2 0 -15 -10 -19 -43 -15 -17 1 -61 -36 -69 -60 -2 -6 -11
-8 -21 -4 -14 5 -17 13 -12 31 4 18 2 23 -6 17 -23 -14 -69 -10 -69 6 -1 11
-4 9 -13 -5 -13 -22 -40 -22 -66 -1 -12 9 -14 8 -9 -4 5 -13 -2 -16 -41 -14
-25 1 -48 3 -51 4 -32 14 -119 -16 -143 -50 -17 -25 -70 -46 -75 -30 -3 7 -11
5 -23 -6 -11 -10 -19 -12 -19 -6 0 7 4 12 10 12 14 0 6 60 -9 70 -10 5 -10 10
1 21 19 20 39 69 33 80 -10 14 -25 10 -25 -7 0 -9 5 -13 13 -9 6 4 5 1 -3 -7
-9 -7 -25 -29 -38 -48 -18 -30 -22 -32 -22 -13 0 45 -30 36 -35 -11 -4 -39 -6
-41 -18 -26 -12 14 -57 26 -57 14 0 -3 7 -12 15 -20 17 -18 20 -34 5 -34 -5 0
-10 7 -10 15 0 8 -7 15 -16 15 -12 0 -15 -6 -10 -26 5 -19 2 -30 -11 -40 -17
-12 -16 -13 10 -14 25 0 27 -2 17 -21 -11 -20 -12 -20 -31 -3 -15 14 -22 15
-28 6 -5 -8 -12 3 -21 30 -7 24 -16 47 -19 53 -3 5 -4 22 -2 37 3 32 -6 36
-24 11 -8 -11 -18 -14 -31 -9 -18 7 -17 9 4 17 31 12 28 56 -3 51 -11 -2 -24
-9 -28 -15 -4 -7 -5 1 -1 17 5 20 3 27 -4 22 -15 -9 -26 14 -13 27 16 16 14
30 -4 23 -11 -4 -15 1 -15 18 0 13 7 26 15 30 8 3 15 10 15 16 0 7 -7 7 -21
-1 -20 -10 -21 -9 -16 10 3 14 0 21 -9 21 -8 0 -14 5 -14 11 0 5 -4 8 -9 4
-16 -9 -24 15 -11 30 19 23 43 19 35 -5 -4 -11 -2 -20 4 -20 13 0 14 30 1 50
-5 8 -6 17 -2 20 5 3 5 19 1 35 l-7 30 -1 -32 c-1 -19 -6 -33 -14 -33 -7 0
-18 -9 -25 -20 -13 -22 -32 -19 -32 5 0 9 7 12 18 9 16 -5 16 -5 0 6 -19 11
-26 36 -8 25 6 -4 9 7 8 28 -2 19 -5 34 -9 32 -3 -2 -4 10 -3 27 1 17 8 34 14
38 9 5 9 9 1 14 -6 4 -11 2 -11 -4 0 -8 -9 -10 -24 -6 -15 4 -26 1 -28 -6 -3
-8 -9 -8 -23 -1 -16 9 -12 12 23 18 23 4 42 10 42 13 0 4 -11 19 -24 33 -18
19 -21 30 -14 37 8 8 8 16 -2 27 -9 11 -10 18 -1 29 9 11 8 17 -7 28 -10 7
-26 28 -34 46 -14 27 -14 32 -2 32 17 0 18 12 3 27 -7 7 -13 24 -14 40 -1 15
-5 36 -10 46 -4 10 -5 21 -1 24 3 4 0 16 -7 27 -10 14 -13 45 -11 96 2 41 4
100 5 130 1 31 10 69 20 87 13 23 15 33 6 37 -7 2 -4 5 6 5 12 1 17 9 17 32 0
32 22 58 50 59 8 0 24 8 35 16 19 15 18 16 -15 9 -35 -7 -35 -7 -15 13 11 11
25 17 30 13 15 -9 29 -8 43 3 10 7 17 5 24 -5 8 -11 9 -10 4 4 -7 22 19 64 44
72 11 3 22 16 26 27 6 19 8 19 15 5 8 -13 14 -14 34 -5 14 6 25 17 25 25 0 7
5 13 10 13 15 0 12 -26 -5 -40 -8 -7 -12 -16 -9 -22 3 -5 14 0 23 11 12 14 36
22 82 26 87 9 97 9 152 2 28 -4 47 -3 47 3 0 6 5 10 11 10 6 0 9 -7 5 -15 -4
-13 1 -14 34 -9 26 4 45 2 55 -6 12 -10 15 -10 15 2 0 8 -3 18 -7 24 -5 5 -1
1 9 -8 20 -22 28 -23 28 -3 0 25 -46 69 -64 62 -19 -8 -76 23 -76 41 0 7 -5
10 -11 7 -6 -4 -8 -14 -5 -21 5 -13 2 -12 -16 1 -23 15 -83 22 -75 8 3 -5 -8
-8 -23 -9 -20 -1 -27 3 -23 12 9 24 -21 15 -60 -17 -20 -17 -37 -25 -37 -18 0
6 8 18 18 26 16 13 16 14 -3 11 -11 -2 -26 -16 -33 -31 -8 -16 -16 -26 -19
-24 -2 3 0 14 6 26 13 24 -3 39 -23 22 -11 -9 -12 -4 -9 26 2 21 11 44 20 51
15 10 13 12 -13 13 -23 1 -25 3 -6 6 12 2 22 7 22 11 0 4 4 13 9 21 8 12 12
11 27 -4 17 -17 18 -16 28 19 6 20 22 44 36 53 33 22 41 35 34 56 -3 11 0 17
10 17 9 0 18 11 22 25 4 15 16 28 30 31 30 8 54 34 31 34 -9 0 -19 -5 -23 -12
-5 -8 -11 -6 -20 7 -12 16 -14 16 -28 2 -22 -22 -20 -29 7 -22 12 3 17 3 11
-2 -6 -4 -14 -18 -18 -30 -10 -31 -30 -30 -22 1 5 21 3 23 -15 19 -20 -6 -20
-4 3 18 13 13 40 35 59 48 39 27 86 81 70 81 -6 0 -11 -4 -11 -10 0 -5 -7 -10
-15 -10 -8 0 -20 -9 -27 -20 -13 -21 -38 -27 -38 -10 0 6 3 10 8 10 4 0 25 16
46 36 21 20 48 40 60 44 17 7 18 9 4 9 -10 1 -18 6 -18 11 0 6 8 10 18 11 14
0 14 2 -3 9 -15 7 -16 9 -4 9 9 1 19 11 23 24 3 12 9 18 13 12 10 -13 43 -19
43 -7 0 4 -5 13 -12 20 -9 9 -9 12 0 12 7 0 12 -4 12 -10 0 -5 5 -10 10 -10 6
0 10 6 10 14 0 16 24 28 44 20 8 -3 17 -1 20 5 4 6 13 8 21 4 9 -3 15 1 15 8
0 10 2 11 8 2 4 -6 26 -10 49 -9z m-217 -14 c0 -5 -5 -10 -11 -10 -5 0 -7 5
-4 10 3 6 8 10 11 10 2 0 4 -4 4 -10z m687 -12 c-3 -8 -6 -5 -6 6 -1 11 2 17
5 13 3 -3 4 -12 1 -19z m-210 1 c-9 -5 -21 -8 -26 -4 -5 3 -12 1 -16 -5 -8
-13 -25 -13 -25 -1 0 11 23 18 60 20 22 0 23 -1 7 -10z m-544 -84 c-3 -9 -8
-14 -10 -11 -3 3 -2 9 2 15 9 16 15 13 8 -4z m607 -15 c0 -5 -7 -10 -15 -10
-8 0 -15 5 -15 10 0 6 7 10 15 10 8 0 15 -4 15 -10z m-639 -33 c-8 -8 -11 -7
-11 4 0 9 3 19 7 23 4 4 9 2 11 -4 3 -7 -1 -17 -7 -23z m871 1 c3 -7 1 -24 -3
-38 -8 -29 -9 -27 -13 18 -4 31 7 44 16 20z m-35 -80 c-3 -8 -6 -5 -6 6 -1 11
2 17 5 13 3 -3 4 -12 1 -19z m53 -58 c0 -5 -4 -10 -10 -10 -5 0 -10 5 -10 10
0 6 5 10 10 10 6 0 10 -4 10 -10z m30 -40 c0 -5 -2 -10 -4 -10 -3 0 -8 5 -11
10 -3 6 -1 10 4 10 6 0 11 -4 11 -10z m-70 -29 c0 -5 -7 -14 -15 -21 -13 -10
-15 -9 -15 9 0 12 6 21 15 21 8 0 15 -4 15 -9z m75 -90 c3 -5 1 -12 -5 -16 -5
-3 -10 1 -10 9 0 18 6 21 15 7z m-1184 -194 c-10 -9 -11 -8 -5 6 3 10 9 15 12
12 3 -3 0 -11 -7 -18z m37 -37 c-17 -33 -58 -73 -58 -56 0 19 22 56 30 51 6
-4 9 -3 8 2 -3 9 23 42 33 43 4 0 -2 -18 -13 -40z m1907 21 c3 -5 1 -12 -5
-16 -5 -3 -10 1 -10 9 0 18 6 21 15 7z m-1585 -42 c0 -4 -7 -6 -15 -3 -8 4
-15 10 -15 15 0 4 7 6 15 3 8 -4 15 -10 15 -15z m40 -9 c0 -5 -2 -10 -4 -10
-3 0 -8 5 -11 10 -3 6 -1 10 4 10 6 0 11 -4 11 -10z m1009 -52 c11 -10 13 -10
7 0 -4 6 -2 12 3 12 6 0 11 -4 11 -10 0 -5 12 -10 28 -10 25 0 71 -19 47 -20
-6 0 -12 -12 -13 -27 -1 -19 1 -24 7 -14 6 9 11 10 15 2 4 -6 18 -11 32 -11
13 0 24 -4 24 -8 0 -5 -16 -7 -36 -5 -33 2 -35 1 -18 -11 10 -8 24 -11 32 -8
12 4 12 1 3 -16 -6 -11 -16 -23 -23 -26 -7 -3 -1 -4 15 -1 27 5 38 -9 15 -18
-8 -3 -6 -6 5 -6 9 -1 17 -6 17 -11 0 -7 -6 -7 -18 -1 -29 16 -168 41 -225 41
-30 0 -76 -7 -102 -15 -27 -8 -52 -12 -57 -9 -4 3 -8 0 -8 -5 0 -6 -16 -11
-35 -11 -27 0 -33 3 -29 15 11 29 59 71 101 91 23 10 43 25 43 32 0 6 5 12 11
12 5 0 7 -4 4 -10 -8 -13 18 -13 32 1 11 11 34 17 71 18 12 1 22 5 22 9 0 5
-13 8 -30 7 -30 -2 -41 9 -17 18 23 10 53 7 66 -5z m-89 -2 c0 -2 -8 -10 -17
-17 -16 -13 -17 -12 -4 4 13 16 21 21 21 13z m270 -56 c0 -5 -4 -10 -10 -10
-5 0 -10 5 -10 10 0 6 5 10 10 10 6 0 10 -4 10 -10z m48 -2 c7 -7 12 -9 12 -4
0 11 25 -16 33 -36 4 -12 2 -18 -8 -18 -8 0 -14 3 -14 8 3 20 -3 28 -28 30
-22 1 -24 0 -13 -8 12 -8 11 -10 -6 -10 -30 0 -36 11 -17 32 19 21 25 22 41 6z
m159 -20 c-3 -8 -6 -5 -6 6 -1 11 2 17 5 13 3 -3 4 -12 1 -19z m-67 -58 c0 -5
-9 -10 -20 -10 -11 0 -20 5 -20 10 0 6 9 10 20 10 11 0 20 -4 20 -10z m-2010
-40 c0 -5 -4 -10 -10 -10 -5 0 -10 5 -10 10 0 6 5 10 10 10 6 0 10 -4 10 -10z
m1615 -4 c-33 -6 -59 -16 -58 -22 1 -6 -13 -9 -31 -8 -25 2 -42 -5 -67 -27
-19 -17 -28 -28 -21 -24 6 3 12 2 12 -3 0 -6 -10 -9 -22 -9 -13 1 -34 -3 -48
-7 -16 -5 -7 5 25 29 90 66 135 82 230 83 35 0 33 -2 -20 -12z m299 -32 c3 -8
2 -12 -4 -9 -6 3 -10 10 -10 16 0 14 7 11 14 -7z m-379 -14 c-3 -5 -12 -10
-18 -10 -7 0 -6 4 3 10 19 12 23 12 15 0z m45 -10 c0 -5 -8 -10 -17 -10 -15 0
-16 2 -3 10 19 12 20 12 20 0z m511 -17 c-8 -15 -10 -15 -11 -2 0 17 10 32 18
25 2 -3 -1 -13 -7 -23z m-494 -115 c15 -17 15 -18 -4 -18 -11 0 -34 5 -51 11
-17 6 -46 12 -64 13 -18 2 -41 4 -50 5 -10 0 -18 6 -18 12 0 7 9 9 21 6 12 -3
18 -3 15 0 -3 4 22 19 56 34 l63 28 8 -37 c4 -20 15 -44 24 -54z m53 83 c0
-17 -12 -41 -21 -41 -5 0 -9 11 -9 25 0 16 6 25 15 25 8 0 15 -4 15 -9z m-200
-5 c0 -2 -11 -6 -25 -8 -13 -3 -22 -1 -19 3 5 9 44 13 44 5z m385 -22 c14 -15
25 -30 25 -34 0 -12 -64 -47 -99 -55 -36 -8 -38 -3 -12 33 10 15 21 39 25 55
8 34 30 35 61 1z m-320 -91 c32 -15 51 -40 23 -31 -7 3 -18 -1 -25 -8 -16 -16
-16 -25 0 -23 6 1 26 0 42 -1 l30 -2 -30 -8 -30 -7 28 -7 c15 -5 27 -12 27
-17 0 -5 9 -9 19 -9 11 0 22 -4 25 -9 8 -12 113 -24 128 -14 18 11 71 12 86 0
8 -6 17 -5 27 3 15 13 39 5 30 -11 -4 -5 4 -9 17 -9 17 0 19 -3 9 -9 -9 -6
-10 -11 -2 -15 6 -4 8 -12 5 -18 -4 -6 2 -17 12 -25 18 -13 18 -15 2 -24 -23
-13 -23 -24 2 -49 11 -11 15 -20 9 -20 -6 0 -17 7 -26 15 -23 23 -44 14 -57
-24 -10 -33 -36 -55 -36 -32 0 6 -5 11 -11 11 -5 0 -7 -5 -3 -11 4 -7 1 -10
-7 -7 -8 3 -22 1 -33 -4 -13 -7 -21 -6 -26 2 -4 7 -19 13 -34 13 -21 0 -25 3
-20 21 4 17 -5 27 -53 56 -62 37 -113 83 -156 141 -32 43 -33 49 -7 42 28 -7
25 16 -2 26 -15 5 -26 4 -30 -3 -5 -6 -8 -1 -8 12 0 19 4 22 21 17 15 -5 20
-3 17 6 -2 8 -19 18 -36 24 -18 5 -32 13 -32 17 0 14 68 8 105 -9z m-355 -3
c0 -5 -4 -10 -10 -10 -5 0 -10 5 -10 10 0 6 5 10 10 10 6 0 10 -4 10 -10z
m420 -10 c0 -5 -4 -10 -10 -10 -5 0 -10 5 -10 10 0 6 5 10 10 10 6 0 10 -4 10
-10z m-1780 -35 c0 -8 6 -14 13 -12 13 2 12 -92 -2 -106 -11 -11 -44 42 -46
72 0 14 -6 26 -13 29 -7 2 -12 8 -12 13 0 6 5 7 10 4 6 -3 10 -1 10 4 0 6 9
11 20 11 11 0 20 -7 20 -15z m2132 -67 c-7 -7 -12 -8 -12 -2 0 14 12 26 19 19
2 -3 -1 -11 -7 -17z m-2089 -49 c-6 -6 -7 3 -4 23 4 28 6 29 9 9 2 -13 0 -27
-5 -32z m-5 -64 c-2 -20 0 -35 7 -35 6 0 6 -3 -1 -8 -12 -8 -12 -119 0 -189 4
-28 3 -43 -4 -43 -5 0 -11 8 -11 18 -1 9 -3 24 -4 32 -1 8 -3 25 -4 37 -1 16
-14 29 -43 43 -51 24 -48 24 -48 0 0 -11 -4 -20 -10 -20 -5 0 -10 23 -10 50 0
28 3 50 6 50 9 0 34 -28 34 -38 0 -5 11 -8 25 -7 22 3 30 -5 26 -27 0 -5 4 -8
9 -8 6 0 10 37 10 90 0 59 4 90 11 90 7 0 10 -14 7 -35z m1631 -85 c4 0 12 5
19 12 16 16 79 -16 87 -43 4 -11 13 -19 21 -19 17 0 19 -17 2 -23 -10 -3 -8
-9 4 -23 10 -10 21 -14 25 -10 4 4 3 10 -3 14 -14 10 -12 62 3 62 7 0 17 -9
23 -20 6 -10 16 -17 23 -15 11 4 67 -37 67 -50 0 -3 -7 -5 -15 -5 -17 0 -20
-16 -5 -25 6 -3 10 -1 10 4 0 6 7 11 15 11 11 0 12 -5 5 -26 -13 -33 -13 -34
5 -34 8 0 15 -8 16 -17 0 -12 2 -14 6 -5 3 9 10 4 19 -13 19 -37 18 -45 -7
-45 -18 0 -19 -2 -9 -15 20 -24 18 -98 -3 -119 -9 -10 -14 -23 -10 -29 4 -6 7
-37 8 -69 2 -48 0 -55 -11 -40 -11 15 -13 14 -20 -13 -4 -17 -15 -38 -25 -48
-11 -10 -19 -31 -19 -47 0 -17 -4 -30 -10 -30 -5 0 -10 5 -10 10 0 6 -9 19
-20 30 -11 11 -24 20 -30 20 -5 0 -10 5 -10 10 0 6 -4 10 -10 10 -14 0 -12
-33 3 -49 9 -10 7 -10 -11 0 -16 10 -22 21 -19 36 5 27 -14 46 -37 37 -12 -4
-26 4 -45 25 -27 31 -51 40 -51 21 0 -5 5 -10 10 -10 6 0 10 -8 10 -17 0 -15
-2 -16 -10 -3 -5 8 -14 16 -20 16 -5 1 -15 2 -21 3 -6 0 -9 8 -6 16 4 8 2 17
-3 20 -6 4 -10 -1 -10 -9 0 -9 -5 -16 -10 -16 -12 0 -30 41 -23 53 6 10 -11 9
-23 -3 -5 -5 -20 -7 -33 -3 -22 6 -21 7 15 24 20 11 45 19 53 19 9 0 27 9 41
20 14 11 33 20 42 20 11 0 15 5 12 14 -3 8 3 16 15 19 14 3 21 13 21 29 0 13
5 29 11 35 14 14 19 103 6 103 -5 0 -7 6 -4 13 3 7 -4 19 -15 26 -11 7 -17 19
-14 27 3 8 1 14 -4 14 -6 0 -10 9 -10 19 0 11 -5 23 -11 26 -6 4 -8 13 -5 21
3 7 1 16 -4 19 -6 4 -9 21 -9 38 1 18 3 24 6 15 2 -10 8 -18 12 -18z m-1452
-142 c-3 -8 -6 -5 -6 6 -1 11 2 17 5 13 3 -3 4 -12 1 -19z m-203 -133 c3 -8 3
-22 0 -30 -5 -13 -10 -12 -25 6 -11 12 -19 26 -19 31 0 14 38 9 44 -7z m256
-59 c0 -8 -4 -18 -10 -21 -5 -3 -10 3 -10 14 0 12 5 21 10 21 6 0 10 -6 10
-14z m1320 4 c0 -5 -5 -10 -11 -10 -5 0 -7 5 -4 10 3 6 8 10 11 10 2 0 4 -4 4
-10z m-1352 -45 c-3 -3 -9 2 -12 12 -6 14 -5 15 5 6 7 -7 10 -15 7 -18z m2192
-5 c0 -5 -7 -10 -16 -10 -8 0 -12 5 -9 10 3 6 10 10 16 10 5 0 9 -4 9 -10z m0
-34 c0 -3 -4 -8 -10 -11 -5 -3 -10 -1 -10 4 0 6 5 11 10 11 6 0 10 -2 10 -4z
m0 -35 c0 -6 -4 -13 -10 -16 -5 -3 -10 1 -10 9 0 9 5 16 10 16 6 0 10 -4 10
-9z m-2385 -41 c3 -6 -1 -7 -9 -4 -18 7 -21 14 -7 14 6 0 13 -4 16 -10z m1012
-52 c-3 -8 -6 -5 -6 6 -1 11 2 17 5 13 3 -3 4 -12 1 -19z m-725 -24 c-5 -24
-19 -40 -29 -30 -4 4 -2 11 5 15 7 4 10 15 6 26 -5 13 -3 16 7 13 8 -3 12 -14
11 -24z m-5 -66 c-3 -8 -6 -5 -6 6 -1 11 2 17 5 13 3 -3 4 -12 1 -19z m30 -10
c-3 -8 -6 -5 -6 6 -1 11 2 17 5 13 3 -3 4 -12 1 -19z m536 -18 c-3 -11 -9 -20
-14 -20 -10 0 -12 24 -2 33 13 13 21 7 16 -13z m-533 -15 c0 -8 -4 -15 -10
-15 -5 0 -7 7 -4 15 4 8 8 15 10 15 2 0 4 -7 4 -15z m2027 -17 c-3 -8 -6 -5
-6 6 -1 11 2 17 5 13 3 -3 4 -12 1 -19z m-1548 -17 c-15 -5 -22 6 -14 19 6 9
10 9 16 -1 5 -8 4 -15 -2 -18z m791 -1 c0 -5 -8 -10 -17 -10 -15 0 -16 2 -3
10 19 12 20 12 20 0z m-902 -107 c-6 -7 -8 -23 -5 -35 4 -12 2 -27 -3 -33 -6
-8 -4 -18 6 -31 8 -10 13 -14 11 -9 -3 6 8 10 24 11 l29 1 -26 -22 c-17 -15
-22 -25 -15 -29 6 -4 15 -4 21 -1 6 3 7 -1 4 -9 -4 -11 0 -16 12 -16 9 0 15
-3 12 -6 -8 -7 28 -44 43 -44 14 0 2 38 -23 73 -27 39 -12 49 20 12 14 -16 31
-29 38 -27 7 1 15 -7 19 -18 6 -19 34 -29 36 -12 4 44 10 67 22 81 8 9 13 21
10 27 -6 17 18 31 64 37 27 3 44 1 46 -7 3 -8 8 -8 18 2 19 17 39 15 40 -5 1
-17 2 -17 6 0 6 21 16 21 53 2 21 -11 30 -12 30 -4 0 8 5 8 16 -2 12 -10 22
-10 48 -1 17 7 62 11 99 11 66 -1 93 -13 66 -30 -8 -5 -9 -9 -3 -9 6 0 17 6
24 14 11 14 42 12 37 -2 -4 -14 26 -72 34 -66 13 8 11 -10 -3 -24 -9 -9 -9
-12 1 -12 7 0 9 -4 6 -10 -5 -9 6 -14 25 -12 3 0 4 -15 2 -33 -4 -31 -9 -36
-51 -49 -106 -35 -310 -53 -403 -36 -35 6 -90 20 -122 31 -70 23 -76 23 -51 6
10 -8 15 -19 11 -25 -13 -21 3 -31 33 -22 18 5 50 3 87 -6 33 -8 93 -16 135
-18 42 -2 81 -6 87 -10 5 -3 17 -3 26 0 8 3 28 -2 45 -12 24 -14 33 -15 44 -5
11 8 17 9 22 1 4 -6 15 -8 25 -5 22 7 36 -10 15 -19 -8 -3 -15 -11 -15 -17 0
-8 4 -8 13 -1 7 5 21 6 32 1 14 -5 16 -8 4 -8 -8 -1 -25 -12 -37 -26 -23 -26
-31 -48 -10 -27 17 17 35 15 42 -5 3 -10 9 -25 12 -33 3 -9 -2 -7 -13 5 -24
27 -57 22 -42 -7 9 -17 8 -19 -8 -14 -26 8 -47 -8 -40 -33 3 -12 1 -24 -4 -27
-5 -3 -9 -14 -9 -25 0 -10 -4 -19 -10 -19 -5 0 -10 7 -10 15 0 24 -17 17 -22
-10 -3 -13 0 -26 6 -29 6 -2 3 -5 -6 -5 -10 -1 -18 6 -18 14 0 9 -6 12 -15 9
-8 -4 -15 -10 -15 -16 0 -5 6 -6 13 -2 10 6 10 4 0 -7 -10 -10 -16 -10 -25 -1
-16 16 -28 15 -28 -1 0 -20 -22 -44 -47 -52 -17 -5 -23 -2 -23 9 0 19 -26 21
-33 4 -3 -8 -6 -6 -6 5 -1 18 -21 25 -21 7 0 -16 -19 -12 -42 10 -28 26 -36
25 -41 -2 -3 -17 -6 -11 -12 20 -5 30 -11 39 -16 30 -5 -7 -9 -9 -9 -5 0 4 -6
2 -14 -5 -8 -7 -11 -17 -9 -22 3 -5 0 -7 -8 -4 -7 2 -14 15 -14 29 0 18 -5 23
-19 21 -10 -2 -22 1 -25 5 -7 11 -93 4 -86 -7 10 -16 -28 -20 -45 -5 -9 8 -22
15 -28 15 -7 0 -12 6 -12 14 0 8 -6 17 -12 19 -8 3 -6 6 5 6 9 1 17 -3 17 -9
0 -5 4 -10 10 -10 24 0 -5 29 -36 34 -38 8 -37 6 -24 40 6 17 6 26 0 26 -6 0
-10 12 -10 26 0 19 -4 25 -15 20 -17 -6 -21 19 -5 29 15 9 12 25 -3 19 -7 -2
-21 4 -32 15 -14 17 -15 23 -5 36 10 12 9 16 -6 22 -15 5 -12 9 17 19 l34 12
-45 2 c-37 0 -42 3 -30 13 8 7 14 22 12 35 -3 17 2 22 17 22 12 0 21 5 21 11
0 7 -12 9 -36 4 -46 -8 -60 10 -59 73 1 37 5 48 20 51 14 2 16 -1 11 -15 -9
-22 -9 -22 -7 -51 0 -13 5 -23 10 -23 5 0 7 10 4 23 l-5 22 20 -22 c20 -23 62
-32 62 -13 0 5 -6 7 -14 4 -20 -8 -45 43 -51 102 -4 40 -2 47 15 51 11 3 20 9
20 14 0 16 18 9 23 -8 4 -15 5 -15 6 2 1 14 8 20 25 20 18 0 22 -3 14 -12z
m-271 -15 c-3 -8 -6 -5 -6 6 -1 11 2 17 5 13 3 -3 4 -12 1 -19z m1891 -33 c-3
-3 -9 2 -12 12 -6 14 -5 15 5 6 7 -7 10 -15 7 -18z m-1898 -15 c0 -5 -4 -10
-10 -10 -5 0 -10 5 -10 10 0 6 5 10 10 10 6 0 10 -4 10 -10z m30 -10 c0 -5 -4
-10 -10 -10 -5 0 -10 5 -10 10 0 6 5 10 10 10 6 0 10 -4 10 -10z m440 -14 c0
-22 -19 -30 -35 -16 -22 18 -18 30 10 30 15 0 25 -6 25 -14z m4 -65 c-4 -21
-10 -28 -14 -20 -5 7 -3 23 3 36 14 31 19 24 11 -16z m726 -60 c0 -9 -52 -51
-64 -51 -3 0 -6 7 -6 15 0 8 6 15 14 15 7 0 19 7 26 15 14 17 30 20 30 6z
m-736 -429 c2 -4 -4 -13 -14 -20 -14 -9 -19 -8 -23 2 -3 8 -3 17 0 20 9 9 31
7 37 -2z m-614 -32 c0 -5 -2 -10 -4 -10 -3 0 -8 5 -11 10 -3 6 -1 10 4 10 6 0
11 -4 11 -10z m650 -10 c0 -5 -7 -10 -15 -10 -8 0 -15 5 -15 10 0 6 7 10 15
10 8 0 15 -4 15 -10z m-92 -35 c-3 -3 -9 2 -12 12 -6 14 -5 15 5 6 7 -7 10
-15 7 -18z m-303 -33 c-3 -3 -11 0 -18 7 -9 10 -8 11 6 5 10 -3 15 -9 12 -12z
m120 -122 c-3 -5 -12 -10 -18 -10 -7 0 -6 4 3 10 19 12 23 12 15 0z m-385 -70
c0 -5 -4 -10 -10 -10 -5 0 -10 5 -10 10 0 6 5 10 10 10 6 0 10 -4 10 -10z
m755 -30 c-3 -5 -12 -7 -20 -3 -21 7 -19 13 6 13 11 0 18 -4 14 -10z m22 -15
c0 -9 -9 -15 -21 -15 -21 1 -21 1 -2 15 24 18 23 18 23 0z m38 -15 c3 -5 2
-10 -4 -10 -5 0 -13 5 -16 10 -3 6 -2 10 4 10 5 0 13 -4 16 -10z m122 -26 c-3
-3 -12 -4 -19 -1 -8 3 -5 6 6 6 11 1 17 -2 13 -5z m-907 -80 c0 -8 -4 -12 -10
-9 -5 3 -10 10 -10 16 0 5 5 9 10 9 6 0 10 -7 10 -16z m-114 -61 c-10 -10 -19
5 -10 18 6 11 8 11 12 0 2 -7 1 -15 -2 -18z m1151 1 c-3 -3 -12 -4 -19 -1 -8
3 -5 6 6 6 11 1 17 -2 13 -5z m-1540 -76 c-3 -8 -6 -5 -6 6 -1 11 2 17 5 13 3
-3 4 -12 1 -19z m1558 2 c-3 -5 -10 -10 -16 -10 -5 0 -9 5 -9 10 0 6 7 10 16
10 8 0 12 -4 9 -10z m280 -159 c-3 -6 -11 -8 -17 -5 -6 4 -5 9 3 15 16 10 23
4 14 -10z m-50 -1 c-3 -6 -20 -8 -38 -5 -47 9 -46 15 2 15 26 0 40 -4 36 -10z
m-134 -13 c-1 -12 -15 -9 -19 4 -3 6 1 10 8 8 6 -3 11 -8 11 -12z m64 -27 c3
-5 -3 -10 -15 -10 -12 0 -18 5 -15 10 3 6 10 10 15 10 5 0 12 -4 15 -10z m79
-5 c-4 -8 -10 -15 -15 -15 -4 0 -6 7 -3 15 4 8 10 15 15 15 4 0 6 -7 3 -15z
m436 -175 c0 -5 -5 -10 -11 -10 -5 0 -7 5 -4 10 3 6 8 10 11 10 2 0 4 -4 4
-10z m90 -334 c0 -3 -4 -8 -10 -11 -5 -3 -10 -1 -10 4 0 6 5 11 10 11 6 0 10
-2 10 -4z"/>
<path d="M5418 10313 c-22 -5 -23 -22 -3 -29 8 -4 12 -10 9 -15 -3 -5 0 -9 5
-9 6 0 11 14 11 30 0 17 -1 29 -2 29 -2 -1 -11 -3 -20 -6z"/>
<path d="M5355 10290 c-3 -5 -1 -10 4 -10 6 0 11 5 11 10 0 6 -2 10 -4 10 -3
0 -8 -4 -11 -10z"/>
<path d="M5600 10270 c0 -5 5 -10 10 -10 6 0 10 5 10 10 0 6 -4 10 -10 10 -5
0 -10 -4 -10 -10z"/>
<path d="M5860 10206 c0 -14 29 -31 38 -22 5 5 -23 36 -32 36 -3 0 -6 -6 -6
-14z"/>
<path d="M5930 10210 c0 -5 4 -10 9 -10 6 0 13 5 16 10 3 6 -1 10 -9 10 -9 0
-16 -4 -16 -10z"/>
<path d="M5913 10164 c-14 -15 -3 -27 14 -16 7 4 9 13 5 19 -5 8 -11 7 -19 -3z"/>
<path d="M5830 10160 c0 -5 4 -10 9 -10 6 0 13 5 16 10 3 6 -1 10 -9 10 -9 0
-16 -4 -16 -10z"/>
<path d="M5842 10109 c2 -7 10 -15 17 -17 8 -3 12 1 9 9 -2 7 -10 15 -17 17
-8 3 -12 -1 -9 -9z"/>
<path d="M5930 10110 c0 -5 5 -10 10 -10 6 0 10 5 10 10 0 6 -4 10 -10 10 -5
0 -10 -4 -10 -10z"/>
<path d="M5780 10054 c0 -8 6 -14 14 -14 7 0 21 -10 30 -22 l16 -23 -2 29 c-2
23 -9 31 -30 37 -21 5 -28 4 -28 -7z"/>
<path d="M5850 10044 c0 -8 5 -12 10 -9 6 4 8 11 5 16 -9 14 -15 11 -15 -7z"/>
<path d="M5927 9954 c-4 -4 -7 -14 -7 -23 0 -11 3 -12 11 -4 6 6 10 16 7 23
-2 6 -7 8 -11 4z"/>
<path d="M5862 9903 c2 -10 11 -19 21 -21 16 -3 17 -1 5 17 -16 25 -31 27 -26
4z"/>
<path d="M5048 9833 c7 -3 16 -2 19 1 4 3 -2 6 -13 5 -11 0 -14 -3 -6 -6z"/>
<path d="M4970 9790 c0 -5 5 -10 10 -10 6 0 10 5 10 10 0 6 -4 10 -10 10 -5 0
-10 -4 -10 -10z"/>
<path d="M4985 9560 c3 -5 8 -10 11 -10 2 0 4 5 4 10 0 6 -5 10 -11 10 -5 0
-7 -4 -4 -10z"/>
<path d="M4956 9533 c-6 -14 -5 -15 5 -6 7 7 10 15 7 18 -3 3 -9 -2 -12 -12z"/>
<path d="M5410 9534 c0 -8 5 -12 10 -9 6 3 10 10 10 16 0 5 -4 9 -10 9 -5 0
-10 -7 -10 -16z"/>
<path d="M5350 9520 c0 -5 5 -10 11 -10 5 0 7 5 4 10 -3 6 -8 10 -11 10 -2 0
-4 -4 -4 -10z"/>
<path d="M5367 9490 c-9 -11 -12 -20 -6 -20 6 0 9 -7 5 -15 -3 -8 -1 -15 3
-15 5 0 8 -8 7 -17 -4 -23 -71 -27 -138 -8 -95 27 -303 -13 -396 -77 -25 -17
-42 -26 -38 -20 13 21 -14 13 -41 -12 -15 -14 -30 -23 -35 -20 -11 7 4 -29 16
-39 8 -6 7 -10 -1 -14 -10 -3 -9 -9 4 -21 15 -15 14 -17 -8 -23 -13 -4 -17 -8
-9 -9 36 -4 53 -9 63 -19 6 -6 19 -11 29 -11 10 0 18 -6 18 -14 0 -8 29 -26
67 -41 58 -23 75 -25 142 -20 71 5 74 5 51 -9 -30 -18 -13 -21 27 -5 58 24
155 47 176 42 18 -4 20 -3 7 7 -12 10 -11 11 8 7 19 -4 22 -2 17 14 -6 17 -1
21 22 18 3 0 10 6 15 15 5 9 14 14 19 10 6 -3 17 2 25 12 13 17 13 16 0 -11
-7 -16 -28 -42 -45 -58 -17 -15 -31 -32 -31 -38 0 -7 -7 -17 -16 -24 -16 -11
-16 -12 0 -18 9 -4 15 -3 12 2 -3 5 0 11 8 14 9 4 12 0 9 -13 -5 -19 10 -22
35 -7 8 6 12 2 12 -12 0 -15 -6 -21 -24 -21 -15 0 -26 -7 -29 -19 -4 -17 -1
-18 24 -11 22 7 29 5 29 -6 0 -23 20 -16 30 12 6 14 14 23 19 19 6 -3 14 3 20
12 9 16 10 16 11 1 0 -26 31 -26 57 0 25 25 32 42 10 23 -8 -6 -17 -8 -20 -4
-4 3 -7 -1 -7 -10 0 -9 -7 -17 -15 -17 -23 0 -18 18 11 45 15 14 22 25 16 25
-6 0 -9 7 -6 15 5 12 10 13 20 4 11 -9 14 -8 14 4 0 8 -6 18 -12 20 -10 4 -10
6 0 6 7 1 12 15 12 36 0 24 5 35 15 35 8 0 15 5 15 11 0 6 -6 9 -13 6 -10 -4
-13 2 -10 21 3 26 3 25 -14 -5 -25 -48 -35 -40 -13 10 14 32 17 51 10 73 -4
16 -9 25 -9 21 -1 -5 -8 -1 -16 7 -13 12 -14 20 -5 37 10 18 7 25 -19 51 -17
17 -31 37 -31 44 0 9 -11 14 -30 14 -20 0 -30 5 -30 15 0 21 -22 19 -43 -5z
m-317 -130 c0 -5 -12 -10 -27 -9 -25 0 -26 1 -8 9 27 12 35 12 35 0z m30 -84
c0 -14 -5 -28 -10 -31 -13 -8 -24 20 -16 40 9 24 26 17 26 -9z m-47 -96 c12
-5 31 -12 42 -15 14 -5 16 -9 6 -12 -24 -9 -139 28 -167 54 -30 28 -25 38 31
67 l29 15 19 -50 c12 -31 27 -54 40 -59z m239 81 c24 -10 57 -25 73 -32 l30
-12 -30 -7 c-107 -26 -211 -50 -216 -50 -4 0 8 15 27 34 19 19 34 43 34 54 0
18 11 29 32 31 4 1 27 -8 50 -18z m-158 -132 c3 -3 -12 -5 -33 -5 -22 1 -42 4
-45 7 -3 3 12 5 33 5 22 -1 42 -3 45 -7z m46 1 c-20 -13 -33 -13 -25 0 3 6 14
10 23 10 15 0 15 -2 2 -10z m284 -95 c3 -8 1 -15 -4 -15 -6 0 -10 7 -10 15 0
8 2 15 4 15 2 0 6 -7 10 -15z"/>
<path d="M5526 9362 c-3 -5 1 -9 9 -9 8 0 15 4 15 9 0 4 -4 8 -9 8 -6 0 -12
-4 -15 -8z"/>
<path d="M4810 9346 c7 -7 13 -7 20 0 6 6 3 10 -10 10 -13 0 -16 -4 -10 -10z"/>
<path d="M5442 8931 c2 -7 7 -12 11 -12 12 1 9 15 -3 20 -7 2 -11 -2 -8 -8z"/>
<path d="M5391 8918 c-1 -10 -5 -18 -11 -18 -5 0 -10 -5 -10 -12 0 -8 6 -7 16
4 9 9 14 22 11 30 -4 9 -6 7 -6 -4z"/>
<path d="M5480 8910 c0 -5 5 -10 10 -10 6 0 10 5 10 10 0 6 -4 10 -10 10 -5 0
-10 -4 -10 -10z"/>
<path d="M5460 8870 c0 -5 7 -10 16 -10 8 0 12 5 9 10 -3 6 -10 10 -16 10 -5
0 -9 -4 -9 -10z"/>
<path d="M5378 8767 c-26 -42 -73 -166 -65 -173 2 -3 12 17 22 43 20 53 40 77
54 68 5 -3 12 -1 16 5 3 5 -2 10 -12 11 -10 0 -13 3 -5 6 6 2 12 11 12 19 0 8
6 14 13 14 6 0 20 12 30 25 18 26 13 32 -13 15 -8 -5 -17 -5 -20 0 -3 5 -17
-10 -32 -33z"/>
<path d="M5478 8803 c7 -3 16 -2 19 1 4 3 -2 6 -13 5 -11 0 -14 -3 -6 -6z"/>
<path d="M4746 8484 c-9 -24 -7 -62 4 -69 6 -3 10 0 10 8 0 8 3 29 6 46 7 32
-9 44 -20 15z"/>
<path d="M5344 8465 c11 -8 15 -19 11 -27 -6 -10 -5 -10 4 -2 15 14 3 44 -18
44 -14 -1 -14 -2 3 -15z"/>
<path d="M5524 8415 c-3 -8 -4 -20 -2 -27 3 -7 7 -1 10 15 6 29 1 36 -8 12z"/>
<path d="M4876 8184 c-4 -9 -4 -19 -1 -22 3 -3 5 1 5 9 0 12 2 12 10 -1 5 -8
11 -12 14 -10 2 3 -1 13 -9 23 -12 16 -13 16 -19 1z"/>
<path d="M5113 8157 c-9 -15 20 -27 34 -15 7 6 13 13 13 17 0 10 -41 8 -47 -2z"/>
<path d="M5020 8099 c0 -5 5 -7 10 -4 6 3 10 8 10 11 0 2 -4 4 -10 4 -5 0 -10
-5 -10 -11z"/>
<path d="M5445 8100 c3 -5 8 -10 11 -10 2 0 4 5 4 10 0 6 -5 10 -11 10 -5 0
-7 -4 -4 -10z"/>
<path d="M4950 8090 c0 -5 7 -7 15 -4 8 4 15 8 15 10 0 2 -7 4 -15 4 -8 0 -15
-4 -15 -10z"/>
<path d="M4965 8020 c3 -5 10 -10 16 -10 5 0 9 5 9 10 0 6 -7 10 -16 10 -8 0
-12 -4 -9 -10z"/>
<path d="M6390 9450 c0 -5 5 -10 11 -10 5 0 7 5 4 10 -3 6 -8 10 -11 10 -2 0
-4 -4 -4 -10z"/>
<path d="M6117 9135 c3 -8 9 -12 14 -9 12 7 11 11 -5 17 -10 4 -13 1 -9 -8z"/>
<path d="M6380 8460 c0 -5 5 -10 10 -10 6 0 10 5 10 10 0 6 -4 10 -10 10 -5 0
-10 -4 -10 -10z"/>
<path d="M5097 7965 c-4 -8 -2 -17 3 -20 6 -4 10 3 10 14 0 25 -6 27 -13 6z"/>
<path d="M5395 7894 c-19 -47 -19 -54 3 -54 17 0 55 67 45 83 -11 18 -34 4
-48 -29z"/>
<path d="M5460 7880 c0 -5 5 -10 10 -10 6 0 10 5 10 10 0 6 -4 10 -10 10 -5 0
-10 -4 -10 -10z"/>
<path d="M5921 7874 c0 -11 3 -14 6 -6 3 7 2 16 -1 19 -3 4 -6 -2 -5 -13z"/>
<path d="M5270 7790 c-12 -8 -11 -10 8 -10 12 0 22 5 22 10 0 13 -11 13 -30 0z"/>
<path d="M5155 7760 c-3 -5 -1 -10 4 -10 6 0 11 5 11 10 0 6 -2 10 -4 10 -3 0
-8 -4 -11 -10z"/>
<path d="M5860 7611 c0 -8 -7 -11 -17 -6 -15 5 -16 4 -5 -6 9 -10 15 -10 24
-1 6 6 9 15 5 19 -4 3 -7 1 -7 -6z"/>
<path d="M5162 7481 c2 -7 7 -12 11 -12 12 1 9 15 -3 20 -7 2 -11 -2 -8 -8z"/>
<path d="M5485 7370 c-3 -5 -1 -10 4 -10 6 0 11 5 11 10 0 6 -2 10 -4 10 -3 0
-8 -4 -11 -10z"/>
<path d="M5515 7370 c3 -5 8 -10 11 -10 2 0 4 5 4 10 0 6 -5 10 -11 10 -5 0
-7 -4 -4 -10z"/>
<path d="M6305 11190 c3 -5 11 -10 16 -10 6 0 7 5 4 10 -3 6 -11 10 -16 10 -6
0 -7 -4 -4 -10z"/>
<path d="M6436 11165 c-3 -8 -1 -15 4 -15 6 0 10 7 10 15 0 8 -2 15 -4 15 -2
0 -6 -7 -10 -15z"/>
<path d="M6817 10763 c-4 -3 -7 -11 -7 -17 0 -6 5 -5 12 2 6 6 9 14 7 17 -3 3
-9 2 -12 -2z"/>
<path d="M6820 9590 c0 -5 5 -10 10 -10 6 0 10 5 10 10 0 6 -4 10 -10 10 -5 0
-10 -4 -10 -10z"/>
<path d="M6894 9158 c-16 -12 -30 -22 -31 -23 -3 -2 16 -126 23 -149 5 -15 8
-16 15 -5 6 10 9 5 9 -16 0 -17 -4 -25 -8 -18 -4 6 -7 -68 -8 -165 0 -108 -5
-188 -12 -204 -17 -42 2 -42 23 0 26 55 36 161 24 247 -9 64 -7 86 11 161 11
47 29 97 40 111 25 32 25 38 0 63 -26 26 -50 25 -86 -2z"/>
<path d="M6872 8510 c0 -14 2 -19 5 -12 2 6 2 18 0 25 -3 6 -5 1 -5 -13z"/>
<path d="M4818 7223 c7 -3 16 -2 19 1 4 3 -2 6 -13 5 -11 0 -14 -3 -6 -6z"/>
<path d="M5010 7199 c0 -5 5 -7 10 -4 6 3 10 8 10 11 0 2 -4 4 -10 4 -5 0 -10
-5 -10 -11z"/>
<path d="M4773 7136 c-25 -12 -29 -21 -13 -31 6 -3 13 1 16 9 3 9 10 13 15 10
5 -3 9 2 9 10 0 9 -1 15 -2 15 -2 -1 -13 -6 -25 -13z"/>
<path d="M5321 7036 c2 -2 15 -9 29 -16 23 -12 24 -12 11 3 -7 10 -20 17 -29
17 -8 0 -13 -2 -11 -4z"/>
<path d="M5290 7020 c8 -5 22 -9 30 -9 10 0 8 3 -5 9 -27 12 -43 12 -25 0z"/>
<path d="M4697 6873 c-13 -13 -7 -21 13 -16 11 3 20 9 20 14 0 10 -24 12 -33
2z"/>
<path d="M5665 6780 c3 -5 8 -10 11 -10 2 0 4 5 4 10 0 6 -5 10 -11 10 -5 0
-7 -4 -4 -10z"/>
<path d="M5753 6623 c-20 -7 -15 -23 7 -23 11 0 20 4 20 9 0 13 -12 19 -27 14z"/>
<path d="M4291 6565 c0 -5 6 -21 14 -35 8 -14 14 -20 14 -15 0 6 -6 21 -14 35
-8 14 -14 21 -14 15z"/>
<path d="M4320 6497 c0 -15 130 -213 166 -252 31 -34 29 -30 -13 30 -26 39
-72 106 -100 150 -29 44 -53 77 -53 72z"/>
<path d="M6640 6389 c0 -5 5 -7 10 -4 6 3 10 8 10 11 0 2 -4 4 -10 4 -5 0 -10
-5 -10 -11z"/>
<path d="M6746 6365 c-9 -26 -7 -32 5 -12 6 10 9 21 6 23 -2 3 -7 -2 -11 -11z"/>
<path d="M6100 6334 c0 -17 17 -36 24 -26 3 5 -1 15 -9 22 -8 7 -15 9 -15 4z"/>
<path d="M6666 6255 c-3 -8 -1 -15 4 -15 6 0 10 7 10 15 0 8 -2 15 -4 15 -2 0
-6 -7 -10 -15z"/>
<path d="M8984 5104 c3 -9 6 -18 6 -20 0 -3 5 -2 10 1 16 10 12 35 -6 35 -11
0 -14 -5 -10 -16z"/>
<path d="M9020 5013 c1 -18 18 -35 24 -24 4 6 4 16 1 21 -7 12 -25 13 -25 3z"/>
<path d="M9042 4951 c4 -13 18 -16 19 -4 0 4 -5 9 -11 12 -7 2 -11 -2 -8 -8z"/>
<path d="M9080 4846 c0 -9 5 -16 10 -16 6 0 10 4 10 9 0 6 -4 13 -10 16 -5 3
-10 -1 -10 -9z"/>
<path d="M9102 4790 c0 -14 2 -19 5 -12 2 6 2 18 0 25 -3 6 -5 1 -5 -13z"/>
<path d="M9126 4675 c4 -8 7 -15 9 -15 2 0 5 7 9 15 3 9 0 15 -9 15 -9 0 -12
-6 -9 -15z"/>
<path d="M9140 4625 c0 -8 5 -15 10 -15 6 0 10 7 10 15 0 8 -4 15 -10 15 -5 0
-10 -7 -10 -15z"/>
<path d="M9150 4585 c0 -6 4 -15 9 -20 5 -6 11 -23 14 -40 l4 -30 2 31 c0 16
-6 39 -14 50 -8 10 -15 14 -15 9z"/>
<path d="M9191 4414 c0 -11 3 -14 6 -6 3 7 2 16 -1 19 -3 4 -6 -2 -5 -13z"/>
<path d="M2831 4064 c0 -11 3 -14 6 -6 3 7 2 16 -1 19 -3 4 -6 -2 -5 -13z"/>
<path d="M8129 3808 c-6 -24 -19 -70 -30 -103 -10 -32 -17 -61 -15 -63 2 -1
15 25 28 60 24 60 44 148 34 148 -3 0 -10 -19 -17 -42z"/>
<path d="M4405 3628 c-11 -6 -22 -13 -24 -15 -3 -1 5 -14 17 -26 l22 -24 -20
-18 c-26 -24 -25 -29 5 -43 34 -16 33 -17 37 21 2 23 8 32 20 31 10 -1 15 2
12 7 -3 5 -12 9 -20 9 -9 0 -14 11 -14 35 0 38 -4 40 -35 23z"/>
<path d="M4570 3609 c0 -23 -6 -32 -27 -41 l-28 -11 25 -7 c20 -5 25 -12 23
-34 -2 -26 0 -27 25 -21 42 10 46 21 19 46 l-26 22 24 19 c32 25 31 34 -5 47
-29 10 -30 9 -30 -20z"/>
<path d="M4770 3578 c0 -71 13 -87 75 -94 62 -8 70 0 79 79 6 53 5 57 -14 57
-17 0 -20 -7 -20 -49 0 -53 -13 -66 -56 -55 -25 7 -34 28 -31 79 2 21 -3 30
-15 33 -15 3 -18 -4 -18 -50z"/>
<path d="M5140 3553 c0 -58 3 -73 15 -73 8 0 15 5 15 11 0 6 7 3 16 -5 8 -9
29 -16 45 -16 32 0 49 27 49 78 0 49 -24 70 -85 74 l-55 3 0 -72z m98 25 c17
-17 15 -65 -2 -71 -8 -3 -27 -2 -43 2 -28 7 -41 36 -29 67 7 17 57 19 74 2z"/>
<path d="M4950 3550 c0 -54 3 -70 14 -70 11 0 16 15 18 53 l3 52 35 -52 c28
-43 40 -53 62 -53 28 0 28 0 28 70 0 54 -3 70 -14 70 -11 0 -16 -15 -18 -52
l-3 -51 -35 51 c-28 41 -41 52 -62 52 -28 0 -28 0 -28 -70z"/>
<path d="M5297 3593 c-10 -38 -7 -99 5 -115 7 -9 30 -20 51 -23 30 -6 37 -4
37 8 0 10 -13 18 -34 22 -22 5 -36 14 -39 26 -5 20 7 26 18 9 3 -5 15 -10 25
-10 26 0 15 28 -13 32 -34 5 -33 28 2 28 41 0 41 26 0 34 -44 9 -47 8 -52 -11z"/>
<path d="M5410 3525 c0 -60 3 -75 15 -75 12 0 15 13 15 55 0 58 1 59 54 56 36
-2 40 -5 33 -26 -4 -9 -19 -15 -41 -15 -27 0 -34 -3 -30 -15 4 -9 19 -15 36
-15 21 0 31 -6 35 -20 3 -11 11 -20 17 -20 9 0 13 21 14 65 1 77 -8 85 -92 85
l-56 0 0 -75z"/>
<path d="M5711 3582 c-5 -9 -21 -43 -35 -75 -20 -46 -22 -57 -10 -57 9 0 26
24 40 55 26 57 38 66 48 39 11 -29 6 -44 -14 -44 -11 0 -20 -4 -20 -10 0 -5
14 -10 30 -10 17 0 30 -4 30 -9 0 -5 9 -11 20 -14 26 -7 25 -2 -10 77 -32 69
-59 86 -79 48z"/>
<path d="M5848 3530 c-3 -61 -1 -70 15 -70 17 0 22 27 17 88 -1 19 3 22 40 22
28 0 43 -5 47 -16 7 -20 -13 -34 -49 -34 -20 0 -26 -4 -22 -15 4 -9 19 -15 35
-15 19 0 29 -5 29 -15 0 -8 9 -15 19 -15 17 0 19 7 17 68 l-1 67 -72 3 -71 3
-4 -71z"/>
<path d="M6027 3593 c-4 -3 -7 -35 -7 -70 0 -49 3 -63 15 -63 11 0 15 12 15
45 0 25 4 45 9 45 5 0 17 -20 27 -45 11 -31 22 -45 35 -45 13 0 27 15 41 45
12 25 25 45 29 45 4 0 7 -21 6 -47 -2 -37 2 -48 13 -48 12 0 16 16 18 73 l3
73 -28 -3 c-21 -2 -34 -14 -51 -45 -13 -24 -27 -43 -30 -43 -4 0 -15 20 -25
45 -15 34 -24 45 -41 45 -13 0 -26 -3 -29 -7z"/>
<path d="M6267 3585 c-20 -20 -23 -105 -5 -123 7 -7 39 -12 75 -12 71 0 83 11
83 78 0 49 -12 60 -81 68 -44 5 -59 3 -72 -11z m111 -62 l3 -43 -45 0 c-34 0
-46 4 -47 15 -1 8 -2 21 -3 28 -5 31 15 48 52 45 36 -3 37 -4 40 -45z"/>
<path d="M6440 3531 c0 -71 19 -91 87 -91 55 0 76 28 71 96 -4 57 -28 75 -28
20 0 -59 -15 -86 -49 -86 -38 0 -45 12 -42 72 2 42 0 48 -19 48 -18 0 -20 -6
-20 -59z"/>
<path d="M6626 3558 c-12 -45 -7 -118 8 -118 18 0 26 22 26 71 l0 40 38 -3
c29 -2 37 -7 37 -23 0 -15 -8 -21 -33 -23 -40 -4 -38 -26 2 -30 18 -2 30 -11
33 -23 8 -31 35 -24 32 9 -1 15 1 39 5 54 5 15 3 35 -4 47 -9 18 -20 21 -74
21 -58 0 -64 -2 -70 -22z"/>
<path d="M2942 3230 c0 -14 4 -36 8 -50 6 -20 8 -21 8 -5 0 11 -4 34 -8 50 -7
27 -8 27 -8 5z"/>
<path d="M7862 3179 c-13 -33 -22 -74 -20 -92 3 -28 6 -24 26 40 31 93 26 134
-6 52z"/>
<path d="M7874 2721 c3 -57 7 -105 9 -107 2 -3 7 34 11 81 5 69 3 91 -9 108
-14 20 -15 14 -11 -82z"/>
<path d="M7893 2510 c0 -30 2 -43 4 -27 2 15 2 39 0 55 -2 15 -4 2 -4 -28z"/>
<path d="M7903 2415 c0 -22 2 -30 4 -17 2 12 2 30 0 40 -3 9 -5 -1 -4 -23z"/>
<path d="M3071 2180 c0 -85 4 -154 13 -186 7 -28 12 -75 10 -105 -2 -30 -6
-103 -10 -163 l-7 -109 -101 6 c-92 5 -98 4 -66 -8 19 -7 31 -14 26 -14 -4 -1
-2 -11 6 -23 8 -13 17 -33 21 -46 4 -19 2 -22 -14 -17 -14 5 -17 3 -13 -9 3
-9 10 -16 14 -16 4 0 7 -13 6 -28 -1 -23 -5 -28 -21 -25 -17 3 -17 2 3 -8 23
-13 30 -29 11 -29 -7 0 -8 -11 -4 -30 6 -26 4 -30 -14 -30 -11 0 -23 -4 -26
-10 -3 -5 1 -10 10 -10 11 0 15 -5 12 -14 -3 -7 0 -19 6 -26 9 -9 6 -11 -13
-8 -22 3 -25 -1 -25 -27 0 -21 6 -32 20 -37 15 -6 12 -7 -10 -5 -30 3 -30 3
-32 -54 -2 -31 -9 -69 -17 -84 -11 -20 -12 -33 -5 -41 15 -18 -6 -27 -31 -14
-13 7 -20 7 -20 0 0 -5 7 -10 15 -10 8 0 15 -4 15 -10 0 -5 -7 -10 -16 -10
-12 0 -15 -6 -10 -24 5 -21 3 -24 -20 -21 -21 2 -28 -3 -36 -26 -7 -22 -17
-29 -36 -30 -24 0 -25 -1 -7 -9 17 -7 17 -9 3 -9 -21 -1 -24 -17 -5 -24 6 -3
-9 -11 -35 -18 -26 -7 -45 -16 -42 -20 3 -5 12 -5 22 -2 13 4 13 2 -3 -10 -15
-13 -17 -17 -5 -17 8 -1 4 -6 -10 -11 -20 -8 -22 -12 -10 -19 12 -8 9 -10 -11
-10 -32 0 -48 -39 -23 -53 14 -8 13 -11 -3 -23 -17 -14 -17 -15 3 -9 18 5 21
1 20 -22 -1 -16 -5 -31 -10 -34 -12 -9 2 -29 21 -29 22 0 55 -41 50 -62 -3 -9
5 -28 18 -42 13 -14 20 -28 17 -31 -4 -3 0 -10 8 -15 12 -8 11 -10 -5 -10 -18
-1 -18 -2 3 -10 24 -10 29 -39 10 -58 -9 -9 -7 -12 10 -12 17 0 22 6 22 24 0
14 5 28 12 32 8 5 9 0 6 -14 -7 -26 10 -41 23 -21 7 11 9 11 9 1 0 -7 -7 -15
-15 -18 -13 -5 -11 -11 10 -32 25 -25 26 -25 41 -6 14 18 15 17 10 -18 -4 -33
-1 -39 21 -50 30 -15 47 -45 19 -35 -10 4 -16 1 -16 -9 0 -11 6 -13 21 -9 15
5 19 4 15 -4 -4 -6 0 -11 9 -11 9 0 14 4 10 9 -3 5 -1 12 5 16 9 6 14 -14 11
-42 -1 -7 2 -13 7 -13 5 0 12 -9 15 -21 5 -18 11 -20 39 -14 18 3 28 3 22 -2
-17 -12 -22 -36 -12 -56 10 -20 32 -12 24 10 -3 8 -1 11 5 8 5 -4 7 -15 4 -24
-5 -16 4 -18 101 -20 l106 -1 -27 47 c-38 68 -112 261 -136 355 -23 91 -24
217 -4 308 7 30 16 96 20 145 3 50 14 115 23 145 15 48 17 105 16 440 -1 354
-3 401 -28 585 -39 300 -44 315 -45 155z m-141 -940 c0 -5 -5 -10 -11 -10 -5
0 -7 5 -4 10 3 6 8 10 11 10 2 0 4 -4 4 -10z m-310 -546 c0 -8 -5 -12 -10 -9
-6 4 -8 11 -5 16 9 14 15 11 15 -7z m470 -665 c0 -5 -4 -9 -10 -9 -5 0 -10 7
-10 16 0 8 5 12 10 9 6 -3 10 -10 10 -16z"/>
<path d="M1505 1478 c-12 -723 -11 -769 27 -1218 6 -74 16 -162 22 -195 l11
-60 255 -3 255 -2 2 27 c0 14 -5 32 -12 39 -7 8 -12 26 -11 42 2 26 -1 29 -26
26 -20 -3 -28 1 -28 11 0 8 5 15 10 15 6 0 10 5 10 11 0 6 -6 9 -14 6 -21 -8
-24 0 -16 38 6 24 4 32 -5 29 -8 -3 -10 5 -7 26 3 23 0 30 -12 30 -24 0 -20
35 7 53 18 13 19 16 5 16 -10 1 -22 -8 -28 -19 -6 -11 -15 -20 -20 -20 -15 0
-12 28 6 56 15 22 15 24 0 18 -9 -3 -16 -10 -16 -15 0 -5 -7 -9 -16 -9 -12 0
-14 4 -7 13 15 20 13 57 -3 57 -20 0 -18 14 6 35 11 10 20 23 20 29 0 6 -5 5
-12 -2 -27 -27 -34 -13 -27 50 4 35 5 73 3 84 -4 14 0 23 10 27 18 7 22 37 5
37 -7 0 -18 -8 -25 -17 -12 -16 -13 -16 -14 -2 0 9 7 19 15 23 20 7 19 30 -1
51 -9 8 -13 22 -10 30 3 10 -1 15 -13 15 -15 0 -19 8 -19 42 -1 24 3 37 7 30
8 -13 41 -6 41 8 0 5 3 16 7 26 4 12 2 15 -8 12 -8 -3 -13 -13 -11 -23 2 -10
-1 -14 -7 -10 -6 3 -11 13 -11 21 0 8 -7 14 -15 14 -12 0 -14 8 -9 40 4 27 3
40 -5 40 -6 0 -11 -11 -11 -25 0 -14 -4 -25 -9 -25 -5 0 -9 16 -8 36 1 20 -5
39 -13 44 -7 4 -13 22 -12 39 0 17 -4 29 -9 26 -5 -4 -9 -13 -9 -22 0 -26 -8
-10 -15 27 -3 19 -10 37 -16 38 -5 2 -9 15 -9 28 0 28 -17 33 -22 7 -3 -10 -5
1 -5 25 0 23 4 42 8 42 5 0 9 6 9 14 0 8 10 17 23 19 12 2 7 4 -10 3 -31 -2
-43 11 -26 28 4 4 6 23 4 42 -1 19 2 34 8 34 6 0 11 -7 11 -15 0 -8 5 -15 10
-15 6 0 10 11 10 24 0 24 -23 41 -41 30 -5 -3 -9 6 -9 20 0 16 6 26 15 26 8 0
15 5 15 10 0 6 -7 13 -15 16 -8 4 -15 10 -15 15 0 5 7 9 15 9 8 0 15 9 15 20
0 11 -4 20 -10 20 -15 0 -12 50 3 50 7 1 5 6 -5 14 -23 17 -23 26 2 26 15 0
19 6 18 24 -1 14 -5 23 -9 20 -4 -2 -10 0 -14 6 -3 5 3 10 14 10 12 0 21 5 21
11 0 5 -10 9 -22 7 -11 -2 -23 3 -25 10 -3 7 4 12 17 12 20 0 21 1 3 25 -12
16 -25 23 -38 20 -11 -3 -14 -2 -7 1 6 3 12 15 12 26 0 15 5 18 20 13 14 -5
20 -2 20 9 0 9 -7 16 -16 16 -10 0 -14 5 -10 16 3 8 2 12 -3 9 -5 -3 -12 -1
-16 5 -3 5 0 10 9 10 8 0 22 3 32 7 10 4 15 2 11 -4 -4 -6 12 -10 40 -10 l46
0 -64 22 c-35 13 -97 34 -137 49 -41 14 -77 26 -81 26 -4 0 -12 -226 -16 -502z
m175 228 c0 -3 -4 -8 -10 -11 -5 -3 -10 -1 -10 4 0 6 5 11 10 11 6 0 10 -2 10
-4z m-3 -48 c-3 -8 -6 -5 -6 6 -1 11 2 17 5 13 3 -3 4 -12 1 -19z m-6 -301
c-10 -9 -11 -8 -5 6 3 10 9 15 12 12 3 -3 0 -11 -7 -18z m49 -252 c0 -5 -5 -3
-10 5 -5 8 -10 20 -10 25 0 6 5 3 10 -5 5 -8 10 -19 10 -25z m240 -825 c0 -5
-4 -10 -10 -10 -5 0 -10 5 -10 10 0 6 5 10 10 10 6 0 10 -4 10 -10z"/>
<path d="M1708 1863 c7 -3 16 -2 19 1 4 3 -2 6 -13 5 -11 0 -14 -3 -6 -6z"/>
<path d="M9225 1804 c-215 -56 -305 -79 -378 -95 -99 -21 -54 -21 57 0 58 11
113 18 123 15 14 -5 15 -4 4 4 -17 12 124 22 142 10 6 -4 15 -2 19 5 5 8 8 5
8 -8 0 -17 2 -17 10 -5 15 23 71 -41 57 -65 -6 -12 -6 -20 3 -25 8 -5 9 -16 5
-30 -4 -14 -3 -20 3 -16 18 11 25 -45 7 -58 -15 -11 -15 -14 -2 -24 12 -10 13
-18 4 -42 -6 -17 -15 -30 -19 -30 -4 0 -8 -20 -8 -44 0 -25 -4 -47 -9 -50 -5
-3 -8 -19 -7 -36 1 -16 -2 -30 -6 -30 -11 0 2 -74 13 -78 5 -2 9 -8 9 -14 0
-6 -9 -3 -20 7 -11 10 -23 15 -27 12 -3 -4 -4 -7 0 -7 3 0 1 -13 -4 -30 -6
-17 -16 -30 -23 -30 -7 0 -21 -20 -33 -45 -15 -33 -17 -45 -7 -45 7 0 16 -5
19 -11 5 -7 -4 -8 -27 -4 l-33 6 -2 -45 c-1 -25 2 -46 7 -46 4 0 10 -9 13 -21
4 -14 2 -19 -7 -16 -18 7 -40 -9 -31 -22 5 -9 10 -9 21 0 8 6 14 10 15 8 0 -2
1 -26 2 -53 l3 -48 -15 31 c-8 17 -18 31 -23 31 -15 0 -8 -31 12 -52 27 -30
25 -39 -6 -27 -36 13 -44 2 -16 -22 26 -20 22 -39 -9 -39 -11 0 -18 4 -14 9 3
5 1 12 -5 16 -5 3 -10 -1 -10 -10 0 -9 9 -19 20 -22 23 -6 36 -39 21 -56 -5
-7 -11 -34 -12 -60 -2 -31 -7 -47 -16 -47 -7 0 -13 5 -13 11 0 5 -4 7 -10 4
-6 -4 -3 -16 7 -31 15 -23 15 -26 -3 -39 -10 -8 -23 -15 -27 -15 -5 0 1 -13
13 -30 16 -22 18 -30 7 -30 -10 0 -14 -12 -13 -42 0 -35 -3 -43 -17 -42 -12 1
-17 -6 -17 -27 0 -27 -2 -28 -32 -23 l-33 6 25 -21 25 -20 -33 -29 c-30 -27
-32 -31 -16 -40 14 -8 10 -11 -21 -16 -21 -4 -34 -11 -28 -14 6 -4 9 -22 7
-40 -3 -23 0 -31 8 -26 7 4 8 3 4 -4 -9 -15 -11 -15 -31 4 -11 11 -20 13 -26
7 -6 -6 -4 -14 6 -23 22 -18 19 -29 -7 -22 -21 5 -21 5 -2 -21 l19 -26 313 -1
313 0 15 36 c29 68 36 185 20 317 -8 67 -17 246 -21 397 -3 151 -10 318 -14
370 -18 195 -41 499 -47 613 -4 78 -10 117 -17 117 -7 -1 -88 -21 -182 -46z
m55 -474 c0 -5 -4 -10 -10 -10 -5 0 -10 5 -10 10 0 6 5 10 10 10 6 0 10 -4 10
-10z m-2 -78 c2 -7 -3 -12 -12 -12 -9 0 -16 7 -16 16 0 17 22 14 28 -4z m-373
-1132 c-3 -5 -10 -10 -16 -10 -5 0 -9 5 -9 10 0 6 7 10 16 10 8 0 12 -4 9 -10z"/>
<path d="M7931 1739 c-1 -78 3 -110 14 -125 8 -10 15 -41 15 -69 0 -62 41
-307 75 -442 13 -56 45 -155 70 -220 105 -267 111 -300 76 -414 -22 -71 -51
-218 -51 -255 0 -13 5 -24 10 -24 6 0 10 5 10 11 0 16 32 83 44 91 6 4 12 12
12 18 1 5 2 15 3 21 0 6 7 9 15 6 8 -3 17 0 20 8 3 8 0 15 -5 17 -6 2 -7 11
-3 21 5 13 10 15 19 7 8 -7 15 -7 19 -1 3 5 1 11 -6 13 -10 4 -10 15 -1 54 12
50 18 135 15 212 -1 30 -6 42 -17 42 -8 0 -15 5 -15 12 0 6 -3 9 -6 5 -10 -9
-32 17 -40 47 -3 14 -10 23 -15 20 -5 -3 -9 0 -9 7 0 6 -7 17 -15 23 -8 6 -16
30 -18 52 -1 23 -5 40 -9 38 -6 -4 -19 25 -24 56 -2 8 -10 20 -20 27 -9 7 -14
19 -11 27 4 9 0 21 -7 28 -7 8 -16 34 -19 58 -3 25 -9 56 -13 69 -5 19 -4 22
6 16 9 -6 11 -4 6 4 -5 7 -11 9 -14 6 -9 -9 -30 128 -42 264 -6 74 -13 117
-22 122 -8 5 -19 56 -29 131 l-17 123 -1 -106z"/>
<path d="M8758 1683 c7 -3 16 -2 19 1 4 3 -2 6 -13 5 -11 0 -14 -3 -6 -6z"/>
<path d="M8668 1663 c6 -2 18 -2 25 0 6 3 1 5 -13 5 -14 0 -19 -2 -12 -5z"/>
<path d="M2828 1633 c6 -2 18 -2 25 0 6 3 1 5 -13 5 -14 0 -19 -2 -12 -5z"/>
<path d="M9255 1560 c-3 -5 -1 -10 4 -10 6 0 11 5 11 10 0 6 -2 10 -4 10 -3 0
-8 -4 -11 -10z"/>
<path d="M1730 1494 c0 -8 5 -12 10 -9 6 3 10 10 10 16 0 5 -4 9 -10 9 -5 0
-10 -7 -10 -16z"/>
<path d="M9215 1381 c-3 -5 -1 -12 5 -16 5 -3 10 1 10 9 0 18 -6 21 -15 7z"/>
<path d="M9202 1270 c0 -14 2 -19 5 -12 2 6 2 18 0 25 -3 6 -5 1 -5 -13z"/>
<path d="M1700 1229 c0 -5 5 -7 10 -4 6 3 10 8 10 11 0 2 -4 4 -10 4 -5 0 -10
-5 -10 -11z"/>
<path d="M9186 1231 c-4 -7 -5 -15 -2 -18 9 -9 19 4 14 18 -4 11 -6 11 -12 0z"/>
<path d="M1760 1169 c0 -5 5 -7 10 -4 6 3 10 8 10 11 0 2 -4 4 -10 4 -5 0 -10
-5 -10 -11z"/>
<path d="M9121 1104 c0 -11 3 -14 6 -6 3 7 2 16 -1 19 -3 4 -6 -2 -5 -13z"/>
<path d="M1850 970 c0 -5 5 -10 10 -10 6 0 10 5 10 10 0 6 -4 10 -10 10 -5 0
-10 -4 -10 -10z"/>
<path d="M2700 900 c-12 -8 -10 -10 8 -10 13 0 20 4 17 10 -7 12 -6 12 -25 0z"/>
<path d="M1850 840 c0 -5 5 -10 10 -10 6 0 10 5 10 10 0 6 -4 10 -10 10 -5 0
-10 -4 -10 -10z"/>
<path d="M2606 835 c-4 -11 2 -15 24 -15 32 0 40 14 14 24 -24 9 -31 7 -38 -9z"/>
<path d="M2578 773 c6 -2 18 -2 25 0 6 3 1 5 -13 5 -14 0 -19 -2 -12 -5z"/>
<path d="M8995 670 c-3 -5 -1 -10 4 -10 6 0 11 5 11 10 0 6 -2 10 -4 10 -3 0
-8 -4 -11 -10z"/>
<path d="M9040 670 c0 -5 5 -10 11 -10 5 0 7 5 4 10 -3 6 -8 10 -11 10 -2 0
-4 -4 -4 -10z"/>
<path d="M1916 625 c4 -8 8 -15 10 -15 2 0 4 7 4 15 0 8 -4 15 -10 15 -5 0 -7
-7 -4 -15z"/>
<path d="M1905 571 c-3 -5 -1 -12 5 -16 5 -3 10 1 10 9 0 18 -6 21 -15 7z"/>
<path d="M1927 453 c-12 -12 -7 -22 8 -17 8 4 15 10 15 15 0 11 -14 12 -23 2z"/>
<path d="M1978 393 c7 -3 16 -2 19 1 4 3 -2 6 -13 5 -11 0 -14 -3 -6 -6z"/>
<path d="M1995 319 c-4 -6 -5 -12 -2 -15 2 -3 7 2 10 11 7 17 1 20 -8 4z"/>
<path d="M7902 295 c0 -16 2 -22 5 -12 2 9 2 23 0 30 -3 6 -5 -1 -5 -18z"/>
<path d="M2010 251 c0 -6 5 -13 10 -16 6 -3 10 1 10 9 0 9 -4 16 -10 16 -5 0
-10 -4 -10 -9z"/>
<path d="M2800 244 c0 -8 5 -12 10 -9 6 4 8 11 5 16 -9 14 -15 11 -15 -7z"/>
<path d="M7887 165 c-4 -44 -10 -99 -13 -122 -4 -27 -2 -43 4 -43 11 0 26 143
20 205 -2 30 -5 20 -11 -40z"/>
<path d="M8109 148 c-7 -18 -16 -35 -19 -38 -9 -8 -45 -72 -53 -95 -7 -20 -7
-20 8 -1 8 11 15 25 15 30 0 6 4 5 9 -3 6 -9 9 -5 9 13 0 15 9 37 20 49 11 12
21 24 21 27 0 3 3 13 7 23 12 33 -3 28 -17 -5z"/>
<path d="M2840 140 c0 -5 5 -10 10 -10 6 0 10 5 10 10 0 6 -4 10 -10 10 -5 0
-10 -4 -10 -10z"/>
<path d="M2070 90 c0 -5 5 -10 10 -10 6 0 10 5 10 10 0 6 -4 10 -10 10 -5 0
-10 -4 -10 -10z"/>
</g>
</svg>
